<svg height="512pt" viewBox="-40 0 512 512" width="512pt" xmlns="http://www.w3.org/2000/svg"><path d="m368.605469 141.96875c-6.921875.003906-13.140625-4.816406-14.648438-11.855469-13.636719-63.628906-64.003906-100.121093-138.1875-100.121093-74.179687 0-124.546875 36.492187-138.183593 100.121093-1.734376 8.097657-9.707032 13.253907-17.804688 11.519531-8.097656-1.734374-13.257812-9.707031-11.519531-17.804687 16.613281-77.535156 79.234375-123.828125 167.507812-123.828125 88.273438 0 150.894531 46.292969 167.511719 123.828125 1.734375 8.097656-3.421875 16.070313-11.519531 17.804687-1.058594.226563-2.117188.335938-3.15625.335938zm0 0" fill="#09607d"/><path d="m383.28125 123.828125c-16.617188-77.527344-79.226562-123.8164062-167.480469-123.828125v29.992188c74.164063.011718 124.519531 36.5 138.152344 100.121093 1.511719 7.039063 7.730469 11.855469 14.648437 11.855469 1.042969 0 2.101563-.109375 3.160157-.335938 8.097656-1.734374 13.253906-9.707031 11.519531-17.804687zm0 0" fill="#001e2a"/><path d="m113.296875 258.9375h-64.390625c-16.539062 0-29.992188-13.453125-29.992188-29.992188v-86.980468c0-16.535156 13.453126-29.992188 29.992188-29.992188h47.894531c7.472657 0 13.804688 5.503906 14.847657 12.902344l16.496093 116.972656c.605469 4.300782-.679687 8.652344-3.527343 11.929688-2.851563 3.28125-6.980469 5.160156-11.320313 5.160156zm0 0" fill="#4895ff"/><path d="m382.636719 258.9375h-54.390625c-7.789063 0-14.28125-5.957031-14.941406-13.71875l-10-116.972656c-.355469-4.183594 1.054687-8.324219 3.894531-11.417969 2.839843-3.09375 6.847656-4.855469 11.046875-4.855469h64.390625c16.539062 0 29.992187 13.457032 29.992187 29.992188v86.980468c0 16.539063-13.453125 29.992188-29.992187 29.992188zm0 0" fill="#005fe4"/><path d="m215.769531 323.925781c-75.699219 0-137.285156-61.589843-137.285156-137.289062s61.585937-137.289063 137.285156-137.289063c75.703125 0 137.289063 61.589844 137.289063 137.289063s-61.585938 137.289062-137.289063 137.289062zm0 0" fill="#ffe4c1"/><path d="m215.800781 49.347656v274.578125c75.6875-.015625 137.257813-61.597656 137.257813-137.289062 0-75.691407-61.574219-137.273438-137.257813-137.289063zm0 0" fill="#fdd1a3"/><path d="m176.78125 228.945312h-91.617188c3.449219 10.621094 8.15625 20.679688 13.953126 29.992188h77.664062c8.28125 0 14.996094-6.710938 14.996094-14.996094 0-8.28125-6.714844-14.996094-14.996094-14.996094zm0 0" fill="#09607d"/><path d="m416.601562 512c-.003906 0-.003906 0-.007812 0l-401.605469-.183594c-4.746093-.003906-9.210937-2.253906-12.039062-6.066406-2.828125-3.8125-3.679688-8.738281-2.304688-13.28125 12.832031-42.308594 41.320313-80.210938 80.226563-106.722656 39.113281-26.652344 85.757812-40.738282 134.898437-40.738282 49.183594 0 95.863281 14.105469 134.992188 40.800782 38.921875 26.554687 67.402343 64.503906 80.195312 106.859375 1.371094 4.542969.511719 9.46875-2.320312 13.28125-2.828125 3.804687-7.292969 6.050781-12.035157 6.050781zm0 0" fill="#4895ff"/><path d="m215.769531 49.347656c-66.925781 0-122.8125 48.140625-134.867187 111.613282 9.730468 2.628906 19.605468 3.945312 29.476562 3.945312 21.292969 0 42.574219-6.085938 62.40625-18.128906 18.007813-10.933594 33.132813-26.136719 43.125-42.425782 2.929688 4.480469 6.265625 9.183594 10.003906 13.847657 21.042969 26.265625 45.882813 40.359375 71.828126 40.761719.789062.011718 1.570312.019531 2.339843.019531 22.992188 0 37.507813-5.363281 47.386719-11.128907-16.777344-56.871093-69.460938-98.503906-131.699219-98.503906zm0 0" fill="#e99958"/><path d="m430.957031 492.667969c-12.792969-42.359375-41.273437-80.308594-80.195312-106.863281-39.121094-26.683594-85.789063-40.792969-134.960938-40.796876v166.898438l200.792969.09375h.007812c4.742188 0 9.207032-2.246094 12.039063-6.054688 2.828125-3.808593 3.6875-8.734374 2.316406-13.277343zm0 0" fill="#005fe4"/><path d="m215.855469 49.347656v55.09375c.015625-.03125.035156-.0625.054687-.089844 2.929688 4.484376 6.265625 9.183594 10.003906 13.851563 21.042969 26.261719 45.882813 40.355469 71.828126 40.757813.792968.015624 1.570312.019531 2.34375.019531 22.988281 0 37.503906-5.363281 47.386718-11.128907-16.773437-56.847656-69.421875-98.464843-131.617187-98.503906zm0 0" fill="#d68954"/></svg>