<svg height="512" viewBox="0 0 512 512" width="512" xmlns="http://www.w3.org/2000/svg"><g id="Fill_out_line" data-name="Fill out line"><rect fill="#396795" height="288" rx="32" width="400" x="88" y="24"/><rect fill="#4ba477" height="352" rx="8" transform="matrix(0 1 -1 0 456 -120)" width="240" x="168" y="-8"/><path d="m88.0001 312h399.9999a0 0 0 0 1 0 0 48 48 0 0 1 -48 48h-304a48 48 0 0 1 -48-48 0 0 0 0 1 0 0z" fill="#26507a"/><path d="m240 312h96a0 0 0 0 1 0 0 24 24 0 0 1 -24 24h-48a24 24 0 0 1 -24-24 0 0 0 0 1 0 0z" fill="#2f4054"/><circle cx="288" cy="168" fill="#eedc9a" r="88"/><path d="m256 120v96l88-48z" fill="#e4595b"/><path d="m32.402 423.029h79.196v33.941h-79.196z" fill="#d3e1e9" transform="matrix(.707 -.707 .707 .707 -290.039 179.785)"/><circle cx="184" cy="328" fill="#395166" r="128"/><path d="m16 440 24-24 56 56-24 24h-56z" fill="#395166"/><circle cx="184" cy="328" fill="#8acce7" r="104"/><path d="m184 248 17.934 56h56.735l-45.899 33.348 17.78 54.723-46.55-33.821-46.55 33.821 17.78-54.723-45.899-33.348h56.735z" fill="#eebe33"/><path d="m496 56a40.04584 40.04584 0 0 0 -40-40h-336a40.04584 40.04584 0 0 0 -40 40v184.47119a135.7056 135.7056 0 0 0 -8.15137 164.36572l-15.84863 15.84864-10.34277-10.34278a8.003 8.003 0 0 0 -11.31446 0l-16 16 11.31446 11.31446 10.34277-10.34375 44.68652 44.68652-10.34375 10.34277 11.31446 11.31446 16-16a8.00122 8.00122 0 0 0 0-11.31446l-10.34278-10.34277 15.84864-15.84863a135.22552 135.22552 0 0 0 76.83691 23.84863c61.07471 0 112.87207-40.46973 129.9939-96h126.0061a56.0629 56.0629 0 0 0 56-56 8.00039 8.00039 0 0 0 -8-8h-.022a39.7896 39.7896 0 0 0 8.022-24zm-416 388.68555-12.68555-12.68555 14.43409-14.43408a137.23861 137.23861 0 0 0 12.68554 12.68554zm104 3.31445a120 120 0 1 1 120-120 120.13623 120.13623 0 0 1 -120 120zm135.97266-122.14844q-.04578-2.94141-.21436-5.85156h6.0767a16.0979 16.0979 0 0 1 -5.86234 5.85156zm-16.65992-63.06787a95.93683 95.93683 0 1 0 -108.16528-70.32422c-3.67746-.2998-7.39404-.45947-11.14746-.45947a135.15533 135.15533 0 0 0 -64 16.03076v-152.03076h336v224h-144.7561a135.43693 135.43693 0 0 0 -7.93116-17.21631zm44.51831-87.76025a8.00068 8.00068 0 0 0 0-14.04688l-88-48a8.00047 8.00047 0 0 0 -11.83105 7.02344v88.03076a135.01471 135.01471 0 0 0 -35.30786-12.9751 80.01977 80.01977 0 1 1 81.0647 52.73584 137.15694 137.15694 0 0 0 -27.6941-28.16723zm-83.831 27.5v-69.04688l63.29295 34.52344zm175.99995 149.47656h-122.12085q.7793-4.36011 1.26831-8.81494a32.10642 32.10642 0 0 0 23.83984-23.18506h136.209a40.07012 40.07012 0 0 1 -39.1963 32zm-122.12085-48c-.48218-2.6958-1.05273-5.36133-1.69165-8h139.8125a16.01833 16.01833 0 0 0 16-16v-224a16.01833 16.01833 0 0 0 -16-16h-336a16.01833 16.01833 0 0 0 -16 16v162.09106q-4.11913 3.00623-8 6.30738v-168.39844a24.0275 24.0275 0 0 1 24-24h336a24.0275 24.0275 0 0 1 24 24v224a24.0275 24.0275 0 0 1 -24 24z"/><path d="m184 216a112 112 0 1 0 112 112 112.12706 112.12706 0 0 0 -112-112zm0 208a96 96 0 1 1 96-96 96.10874 96.10874 0 0 1 -96 96z"/><path d="m191.61914 245.55957a8.00063 8.00063 0 0 0 -15.23828 0l-16.15332 50.44043h-50.89649a7.99976 7.99976 0 0 0 -4.70214 14.47168l41.19726 29.93164-15.98437 49.19629a7.99938 7.99938 0 0 0 12.31054 8.94336l41.84766-30.4043 41.84766 30.4043a7.99938 7.99938 0 0 0 12.31054-8.94336l-15.98437-49.19629 41.19726-29.93164a7.99976 7.99976 0 0 0 -4.70209-14.47168h-50.89654zm16.44824 85.31643a7.99866 7.99866 0 0 0 -2.90625 8.94336l10.17187 31.30764-26.63086-19.34863a7.99766 7.99766 0 0 0 -9.4043 0l-26.63084 19.34863 10.17188-31.30761a7.99866 7.99866 0 0 0 -2.90625-8.94336l-25.97951-18.87603h32.11231a8.00041 8.00041 0 0 0 7.61914-5.55957l10.31543-32.21094 10.31543 32.21094a8.00041 8.00041 0 0 0 7.61914 5.55957h32.11231z"/></g></svg>