<svg height="480pt" viewBox="-63 0 479 480" width="480pt" xmlns="http://www.w3.org/2000/svg"><path d="m248.5 440v-16h-240v16c0 17.671875 14.328125 32 32 32h176c17.671875 0 32-14.328125 32-32zm-136 8" fill="#3d9ae2"/><path d="m248.5 136c0-17.671875-14.328125-32-32-32h-176c-17.671875 0-32 14.328125-32 32v16h240zm-128-8" fill="#3d9ae2"/><path d="m248.5 152h-240v272h240zm-56 128-16 48-24-112-24 64h-16l-24 64-16-104-24 48 24-48 16 104 24-64h16l24-64 24 112zm0 0" fill="#f1f2f2"/><g fill="#231f20"><path d="m216.5 96h-176c-22.082031.027344-39.972656 17.917969-40 40v304c.027344 22.082031 17.917969 39.972656 40 40h176c22.082031-.027344 39.972656-17.917969 40-40v-304c-.027344-22.082031-17.917969-39.972656-40-40zm-176 16h176c13.253906 0 24 10.746094 24 24v8h-224v-8c0-13.253906 10.746094-24 24-24zm200 304h-224v-256h224zm-24 48h-176c-13.253906 0-24-10.746094-24-24v-8h224v8c0 13.253906-10.746094 24-24 24zm0 0"/><path d="m216.5 0c-4.417969 0-8 3.582031-8 8s3.582031 8 8 8c66.242188.074219 119.925781 53.757812 120 120 0 4.417969 3.582031 8 8 8s8-3.582031 8-8c-.082031-75.074219-60.925781-135.9179688-136-136zm0 0"/><path d="m216.5 48c-4.417969 0-8 3.582031-8 8s3.582031 8 8 8c39.746094.042969 71.957031 32.253906 72 72 0 4.417969 3.582031 8 8 8s8-3.582031 8-8c-.058594-48.578125-39.421875-87.941406-88-88zm0 0"/><path d="m120.5 136h16c4.417969 0 8-3.582031 8-8s-3.582031-8-8-8h-16c-4.417969 0-8 3.582031-8 8s3.582031 8 8 8zm0 0"/><path d="m144.5 440h-32c-4.417969 0-8 3.582031-8 8s3.582031 8 8 8h32c4.417969 0 8-3.582031 8-8s-3.582031-8-8-8zm0 0"/><path d="m32.5 296h16c3.03125 0 5.804688-1.710938 7.160156-4.425781l12.75-25.519531 12.1875 79.203124c.550782 3.601563 3.472656 6.375 7.101563 6.742188.28125 0 .554687.039062.800781.039062 3.335938 0 6.316406-2.070312 7.488281-5.191406l22.054688-58.847656h10.457031c3.335938.003906 6.324219-2.066406 7.496094-5.191406l14.398437-38.402344 18.28125 85.289062c.757813 3.523438 3.777344 6.105469 7.378907 6.304688 3.597656.203125 6.886718-2.03125 8.03125-5.449219l14.183593-42.550781h18.230469c4.417969 0 8-3.582031 8-8s-3.582031-8-8-8h-24c-3.441406.003906-6.496094 2.207031-7.585938 5.472656l-6.734374 20.191406-17.855469-83.335937c-.742188-3.464844-3.667969-6.027344-7.199219-6.304687-3.554688-.300782-6.871094 1.816406-8.089844 5.167968l-22.078125 58.808594h-10.457031c-3.335938-.003906-6.324219 2.066406-7.496094 5.191406l-13.246094 35.34375-11.355468-73.75c-.527344-3.441406-3.222656-6.148437-6.664063-6.6875-3.449219-.578125-6.867187 1.183594-8.398437 4.328125l-21.785156 43.574219h-11.054688c-4.417969 0-8 3.582031-8 8s3.582031 8 8 8zm0 0"/></g></svg>