<svg id="Layer_3" enable-background="new 0 0 64 64" height="512" viewBox="0 0 64 64" width="512" xmlns="http://www.w3.org/2000/svg"><g><path d="m58 46h-52c-2.209 0-4-1.791-4-4v-36c0-2.209 1.791-4 4-4h52c2.209 0 4 1.791 4 4v36c0 2.209-1.791 4-4 4z" fill="#58616c"/><path d="m59 42v-36c0-2.209-1.791-4-4-4h-49c-2.209 0-4 1.791-4 4v36c0 2.209 1.791 4 4 4h49c2.209 0 4-1.791 4-4z" fill="#758190"/><path d="m58 2h-52c-2.209 0-4 1.791-4 4v28h60v-28c0-2.209-1.791-4-4-4z" fill="#689eb8"/><path d="m55 2h-49c-2.209 0-4 1.791-4 4v28h57v-28c0-2.209-1.791-4-4-4z" fill="#8bd2f5"/><g><path d="m31 17h2v11h-2z" fill="#758190"/></g><circle cx="32" cy="16" fill="#f7d881" r="2"/><path d="m30 28h4v6h-4z" fill="#976947"/><circle cx="32" cy="40" fill="#b9c0c9" r="2"/><path d="m41 56-4-10h-10l-4 10z" fill="#7e848d"/><path d="m27 46-4 10h15l-4-10z" fill="#a8b0bc"/><path d="m48 62h-32v-3c0-1.657 1.343-3 3-3h26c1.657 0 3 1.343 3 3z" fill="#58616c"/><path d="m42 56h-23c-1.657 0-3 1.343-3 3v3h29v-3c0-1.657-1.343-3-3-3z" fill="#758190"/><g><path d="m26.293 20.707-.586-.586c-1.085-1.085-1.707-2.587-1.707-4.121s.622-3.036 1.707-4.121l.586-.586 1.414 1.414-.586.586c-.712.713-1.121 1.699-1.121 2.707s.409 1.994 1.121 2.707l.586.586z" fill="#758190"/></g><g><path d="m23.292 23.706-.171-.172c-2.013-2.012-3.121-4.687-3.121-7.534s1.108-5.522 3.122-7.535l.17-.171 1.416 1.412-.171.172c-1.637 1.636-2.537 3.81-2.537 6.122s.9 4.486 2.536 6.121l.172.173z" fill="#758190"/></g><g><path d="m37.707 20.707-1.414-1.414.586-.586c.712-.713 1.121-1.699 1.121-2.707s-.409-1.994-1.121-2.707l-.586-.586 1.414-1.414.586.586c1.085 1.085 1.707 2.587 1.707 4.121s-.622 3.036-1.707 4.121z" fill="#758190"/></g><g><path d="m40.708 23.706-1.416-1.412.171-.172c1.637-1.636 2.537-3.81 2.537-6.122s-.9-4.486-2.536-6.121l-.172-.173 1.416-1.412.171.172c2.013 2.012 3.121 4.687 3.121 7.534s-1.108 5.522-3.122 7.535z" fill="#758190"/></g></g></svg>